<?xml version="1.0" standalone="no"?>
<!DOCTYPE svg PUBLIC "-//W3C//DTD SVG 20010904//EN"
 "http://www.w3.org/TR/2001/REC-SVG-20010904/DTD/svg10.dtd">
<svg version="1.0" xmlns="http://www.w3.org/2000/svg"
 width="2000.000000pt" height="2000.000000pt" viewBox="0 0 2000.000000 2000.000000"
 preserveAspectRatio="xMidYMid meet">

<g transform="translate(0.000000,2000.000000) scale(0.100000,-0.100000)"
fill="#000000" stroke="none">
<path d="M7152 15141 c-64 -22 -132 -85 -165 -151 l-22 -45 -5 -1725 -5 -1725
-26 40 c-15 22 -45 72 -67 110 -77 134 -166 231 -254 276 -74 38 -150 49 -389
58 -196 8 -243 12 -287 29 -70 27 -93 43 -115 81 l-18 31 69 0 c238 0 439 163
544 441 28 75 32 96 32 189 1 129 -16 182 -122 395 -41 82 -97 215 -124 295
-60 178 -113 274 -198 361 -116 118 -269 176 -490 186 -145 6 -224 -7 -344
-57 -137 -57 -246 -160 -246 -233 0 -19 -12 -43 -35 -70 -79 -92 -97 -211 -70
-466 19 -183 16 -220 -25 -421 -50 -241 -49 -323 9 -445 55 -118 156 -185 280
-185 69 0 89 13 157 101 25 32 51 59 58 59 17 0 31 -146 21 -214 -15 -97 -97
-132 -335 -146 -171 -10 -242 -25 -340 -73 -91 -44 -212 -166 -270 -272 -24
-44 -93 -159 -154 -255 -143 -228 -770 -1166 -807 -1207 -41 -47 -76 -112 -89
-164 -31 -125 52 -204 311 -294 141 -49 307 -91 464 -116 72 -11 218 -36 325
-56 107 -19 239 -37 293 -40 53 -3 97 -9 97 -13 0 -4 -29 -68 -65 -142 -81
-169 -143 -354 -195 -579 -67 -296 -83 -413 -84 -604 0 -186 16 -281 70 -407
126 -298 239 -858 251 -1245 7 -219 -2 -285 -62 -473 -90 -280 -101 -341 -84
-464 22 -164 152 -623 250 -884 21 -57 39 -110 39 -117 0 -17 -104 -61 -175
-74 -33 -6 -132 -15 -220 -20 -188 -10 -228 -22 -250 -75 -21 -49 -19 -152 6
-308 19 -118 21 -143 10 -221 -29 -220 -23 -370 20 -466 24 -55 89 -125 141
-152 21 -10 57 -19 82 -19 60 0 76 23 76 108 0 92 27 261 55 343 28 84 84 180
171 295 65 87 154 187 161 180 2 -2 12 -75 22 -162 l17 -159 -33 -100 c-71
-212 -89 -320 -67 -397 29 -95 120 -163 425 -314 196 -97 333 -144 424 -144
60 0 69 3 96 29 25 25 29 37 29 83 -1 96 -53 196 -244 468 -130 185 -206 327
-235 442 -23 90 -47 289 -56 468 l-7 125 34 26 c18 14 136 101 262 193 393
287 641 492 879 725 91 89 158 163 172 191 44 87 49 161 42 729 -10 863 -57
1376 -172 1886 -88 391 -105 527 -85 700 13 109 6 271 -17 417 l-6 38 33 -16
c72 -37 143 6 324 198 l111 117 5 -3202 5 -3202 27 -50 c31 -60 77 -104 138
-136 l45 -24 3160 0 3160 0 57 28 c69 34 121 92 145 161 15 44 18 86 18 294 0
133 3 242 6 242 4 0 28 -9 54 -21 l47 -21 -7 -149 c-7 -138 -6 -149 11 -156
10 -4 76 -1 146 5 336 30 701 148 1006 323 209 120 323 209 268 209 -8 0 -58
-30 -113 -66 -369 -247 -800 -403 -1190 -430 l-96 -7 6 109 c13 203 27 358 48
534 l21 175 41 35 c128 108 508 452 679 613 292 277 618 636 618 680 0 25 -19
20 -45 -10 -13 -16 -65 -77 -115 -138 -172 -204 -618 -637 -1020 -990 -69 -61
-128 -114 -132 -120 -18 -25 -15 15 17 200 99 579 233 1118 433 1742 22 67 37
125 34 128 -20 20 -36 -10 -87 -167 -57 -176 -172 -569 -195 -666 -7 -30 -16
-50 -19 -45 -4 4 -16 44 -25 88 -51 225 -230 802 -333 1072 l-57 148 -3 3845
c-4 4513 -2 4284 -26 4327 -30 55 -78 103 -131 131 l-51 27 -3150 2 c-3039 2
-3152 2 -3203 -16z m3706 -571 c12 -11 25 -32 28 -45 8 -31 -12 -82 -37 -95
-10 -6 -199 -10 -469 -10 l-451 0 -24 25 c-17 16 -25 35 -25 60 0 25 8 44 25
60 l24 25 454 0 c441 0 454 -1 475 -20z m-1986 -250 c45 -39 108 -82 138 -98
l55 -27 1310 0 1310 0 47 23 c26 13 85 57 132 98 l85 74 651 0 650 0 0 -5125
0 -5125 -2912 2 -2913 3 -3 2986 -2 2986 72 89 c87 108 107 151 108 225 0 72
-13 109 -107 298 l-76 154 6 1751 c4 963 7 1752 7 1754 0 1 306 2 679 2 l679
0 84 -70z m-3351 -496 c125 -37 222 -111 298 -228 58 -88 86 -164 131 -353 53
-220 80 -273 196 -395 139 -144 173 -228 140 -341 -15 -51 -31 -76 -42 -65 -2
3 3 22 12 44 9 21 17 64 17 94 0 78 -34 139 -141 248 -106 108 -149 186 -187
342 -69 284 -91 343 -167 446 -76 102 -161 160 -281 190 -72 19 -183 15 -240
-9 -52 -22 -125 -93 -129 -125 -4 -33 -24 -30 -21 3 4 52 85 125 168 151 57
18 182 17 246 -2z m299 -39 c7 -9 10 -18 7 -22 -8 -7 -37 15 -37 28 0 14 16
11 30 -6z m-458 -56 c81 -17 181 -75 263 -151 131 -122 165 -196 225 -481 46
-223 55 -248 134 -370 64 -98 103 -186 113 -252 7 -57 -12 -61 -21 -4 -10 65
-49 150 -115 252 -76 118 -93 165 -137 386 -52 258 -91 340 -216 456 -137 126
-305 180 -388 123 -26 -17 -36 -32 -38 -56 -3 -29 2 -35 47 -63 59 -37 59 -58
0 -29 -38 20 -79 70 -79 97 0 23 55 74 95 88 49 17 52 18 117 4z m-347 -26
c-30 -71 -30 -72 -9 -100 11 -16 43 -39 72 -53 51 -25 65 -40 37 -40 -27 0
-92 38 -119 70 -30 36 -33 68 -11 110 17 32 42 42 30 13z m939 -80 c86 -134
117 -236 140 -466 8 -79 21 -160 30 -180 8 -20 45 -68 81 -107 63 -67 94 -120
109 -182 6 -28 -11 -42 -18 -15 -22 76 -45 116 -106 182 -101 108 -103 113
-120 309 -6 66 -18 152 -26 190 -18 79 -76 211 -123 280 -34 48 -36 56 -21 56
6 0 30 -30 54 -67z m-508 -109 c19 -9 56 -40 83 -70 54 -59 131 -172 131 -191
0 -9 -16 -13 -48 -13 -75 0 -157 -67 -106 -87 9 -3 41 6 70 20 77 38 101 36
121 -10 8 -21 24 -86 34 -144 9 -58 23 -126 29 -150 13 -49 64 -153 109 -225
29 -44 29 -48 16 -80 -39 -93 -183 -264 -273 -324 -27 -18 -59 -30 -77 -30
-85 0 -189 64 -330 201 -98 95 -104 103 -128 177 -14 42 -38 131 -53 197 -29
130 -33 257 -15 475 12 127 30 167 94 199 49 24 146 33 195 17 16 -5 23 -3 27
8 3 9 7 23 10 31 6 20 67 20 111 -1z m-451 -773 c14 -56 25 -108 25 -114 -1
-23 -59 53 -71 92 -9 32 -9 50 1 86 7 25 15 44 17 42 2 -3 15 -50 28 -106z
m-82 -58 c-7 -65 11 -207 37 -283 12 -34 19 -67 17 -74 -8 -20 -49 85 -63 163
-14 80 -19 223 -7 234 16 17 22 3 16 -40z m860 -373 c-3 -11 -9 -17 -15 -14
-5 3 -4 12 3 20 16 19 18 18 12 -6z m302 -9 c-16 -31 -33 -47 -42 -38 -8 9 30
67 44 67 11 0 10 -6 -2 -29z m-1029 -48 c34 -28 43 -43 25 -43 -13 0 -71 50
-71 61 0 14 9 11 46 -18z m675 -46 c-20 -20 -13 -57 13 -68 13 -6 32 -29 42
-51 9 -21 32 -52 51 -68 33 -30 144 -70 192 -70 47 0 54 -12 47 -76 -29 -244
-160 -401 -363 -434 -188 -31 -417 99 -627 355 l-57 70 76 12 c134 21 202 52
236 107 15 25 19 51 19 139 0 59 2 107 5 107 3 0 28 -11 55 -25 100 -51 167
-44 255 24 l50 39 9 -25 c5 -16 4 -29 -3 -36z m554 -483 c50 -201 111 -398
141 -457 8 -15 17 -46 20 -70 9 -71 24 -147 50 -247 35 -135 34 -179 -11 -286
-21 -49 -50 -125 -66 -169 l-29 -80 2 -236 3 -237 -48 -5 c-110 -10 -147 -105
-43 -108 30 -1 30 -1 -10 -15 -49 -18 -62 -46 -33 -75 10 -10 27 -19 37 -19
10 -1 3 -7 -15 -15 -18 -8 -33 -18 -33 -24 0 -12 -77 -28 -215 -42 -125 -13
-293 -7 -435 16 -88 15 -102 20 -185 75 -49 33 -87 60 -82 60 4 0 44 -9 88
-21 44 -11 87 -18 95 -15 8 3 14 19 14 36 0 29 -6 34 -75 66 -41 20 -123 53
-182 74 -72 26 -107 43 -104 52 2 7 8 44 14 81 22 142 -22 245 -167 392 -55
55 -121 133 -147 174 l-48 74 49 55 c61 69 114 176 142 289 31 125 30 364 -1
511 -18 87 -59 221 -86 285 -6 14 -2 17 26 17 30 0 40 -8 89 -71 30 -39 94
-109 142 -155 234 -225 457 -291 664 -195 147 68 236 207 266 416 l12 86 54
-3 54 -3 53 -211z m245 187 c123 -38 212 -119 301 -273 76 -133 131 -211 314
-453 245 -324 341 -469 329 -499 -3 -9 7 -31 24 -53 41 -51 73 -137 75 -198 1
-95 -45 -156 -362 -480 -119 -121 -259 -267 -312 -325 -100 -110 -231 -240
-242 -240 -4 0 -7 21 -7 48 0 26 -5 65 -11 87 -10 35 -9 41 7 50 35 20 66 61
205 269 135 201 222 360 329 599 35 78 41 100 31 110 -10 9 -15 8 -26 -7 -8
-10 -16 -24 -19 -30 -3 -6 -55 41 -116 104 -122 127 -210 251 -370 518 l-103
173 76 70 c79 73 90 89 59 89 -19 0 -146 -109 -202 -173 l-34 -39 -12 24 c-42
80 -184 576 -184 642 0 18 6 19 93 13 50 -3 122 -15 157 -26z m-1632 -103
c109 -291 129 -588 56 -819 -25 -78 -82 -176 -127 -217 -25 -24 -25 -24 -36
-3 -27 50 -90 226 -84 232 5 3 33 15 63 24 107 35 143 54 131 69 -10 12 -30 7
-124 -25 -61 -21 -127 -49 -146 -61 -19 -13 -91 -95 -159 -183 -252 -324 -628
-755 -657 -755 -8 0 -29 18 -48 40 -19 22 -39 40 -45 40 -26 0 -9 -39 38 -93
185 -206 575 -375 969 -418 56 -6 108 -9 115 -6 7 3 39 43 71 89 106 152 163
218 191 218 13 0 79 -20 147 -44 240 -88 301 -131 86 -61 -124 40 -139 42
-139 17 0 -19 74 -78 208 -167 39 -26 72 -52 72 -58 0 -15 -47 1 -172 60 -73
35 -122 53 -128 47 -15 -15 0 -28 124 -105 66 -40 114 -75 107 -77 -15 -5
-130 40 -209 84 -72 39 -82 41 -82 16 0 -11 35 -47 85 -88 47 -38 85 -72 85
-77 0 -12 -65 19 -140 67 -39 25 -75 46 -81 46 -5 0 -33 -18 -61 -41 -61 -48
-107 -73 -166 -89 -53 -14 -150 -4 -387 40 -88 17 -209 37 -270 45 -260 35
-534 113 -698 197 -140 73 -159 148 -72 278 19 29 35 56 35 60 0 4 6 10 14 13
30 12 845 1251 966 1469 84 151 276 282 422 287 23 1 29 -6 46 -51z m1746
-686 c130 -218 215 -348 275 -420 l51 -61 0 -270 0 -271 -41 -67 c-57 -94
-232 -351 -267 -392 -16 -19 -33 -32 -39 -28 -5 3 -29 58 -52 121 -36 98 -50
121 -87 156 l-44 40 -6 224 c-8 256 -7 261 69 440 48 114 51 126 51 206 1 61
-8 123 -32 220 -39 166 -39 183 -4 225 15 19 28 34 29 34 1 1 45 -70 97 -157z
m-1950 -224 c36 -100 105 -243 151 -312 19 -29 81 -99 137 -157 121 -123 157
-184 164 -287 7 -93 -12 -156 -49 -160 -32 -4 -97 -74 -196 -212 l-68 -95 -77
2 c-150 5 -413 73 -598 154 -95 41 -203 107 -276 166 l-43 35 108 112 c134
140 344 386 532 627 134 172 166 209 181 209 3 0 18 -37 34 -82z m1742 -1017
c17 -10 40 -34 52 -52 33 -56 111 -284 118 -346 3 -32 10 -71 15 -87 11 -34 0
-46 -44 -46 -38 0 -81 46 -102 109 -19 59 -48 86 -98 95 -67 12 -30 27 49 20
l74 -7 0 27 c0 48 -31 66 -115 66 -41 0 -75 4 -75 9 0 9 22 14 111 26 56 8 74
18 66 38 -6 17 -58 27 -141 27 -85 0 -59 17 39 27 61 6 80 12 83 24 4 20 -39
49 -75 50 -16 1 -46 3 -67 6 -37 5 -38 6 -21 19 27 20 95 17 131 -5z m-796
-272 c119 -17 393 -15 520 4 119 18 250 21 250 7 0 -6 -20 -10 -44 -10 -34 0
-52 -6 -71 -24 -27 -25 -108 -44 -275 -66 -147 -19 -392 -7 -527 25 -29 7 -30
31 -2 38 11 3 23 15 26 27 4 13 11 19 22 16 9 -3 54 -10 101 -17z m-118 -797
c73 -121 164 -300 193 -375 20 -54 25 -85 25 -158 0 -99 -19 -249 -52 -398
-26 -121 -35 -148 -49 -134 -8 8 -2 56 20 167 38 190 56 354 47 429 -8 61
-113 286 -205 436 -28 46 -51 90 -51 98 0 33 29 7 72 -65z m818 -80 c0 -29
-69 -123 -149 -202 -78 -77 -207 -170 -235 -170 -32 0 -14 20 62 71 92 62 213
182 265 262 39 58 57 71 57 39z m-100 -29 c0 -30 -61 -112 -135 -181 -80 -75
-262 -202 -288 -202 -35 0 -14 21 83 86 121 80 241 190 287 262 34 53 53 66
53 35z m-570 -1019 c0 -52 199 -716 270 -903 62 -161 90 -268 130 -492 17 -96
44 -240 60 -321 17 -80 30 -148 30 -151 0 -3 -42 -36 -92 -73 -270 -200 -374
-304 -516 -516 -151 -226 -166 -247 -174 -248 -10 0 -9 235 2 850 9 507 6 476
90 945 31 171 166 871 177 912 5 24 23 22 23 -3z m8132 -1174 c105 -299 231
-721 293 -984 l26 -109 -41 -173 c-55 -233 -111 -519 -150 -754 -17 -107 -34
-197 -36 -200 -3 -2 -8 0 -12 6 -4 6 -40 60 -79 120 l-73 109 -2 1092 c-2 601
0 1089 3 1085 3 -4 35 -90 71 -192z m10 -2176 l77 -115 -19 -152 c-10 -84 -22
-189 -26 -234 -3 -46 -9 -83 -13 -83 -3 0 -28 13 -56 28 l-49 27 -1 322 c0
178 2 323 5 323 3 -1 40 -53 82 -116z m-8999 -17 c6 -73 44 -208 71 -257 13
-23 11 -28 -34 -85 -59 -75 -141 -199 -171 -262 -13 -26 -33 -84 -44 -127
l-21 -79 -21 29 c-26 37 -53 116 -53 156 0 57 137 669 154 685 6 6 100 20 107
17 3 -2 9 -37 12 -77z m-163 58 c0 -3 -24 -103 -54 -223 -74 -294 -100 -433
-91 -491 8 -58 38 -126 74 -172 20 -24 28 -43 25 -60 -3 -13 -8 -67 -12 -119
l-7 -95 -31 -3 c-26 -3 -37 3 -63 35 -77 94 -100 235 -77 486 13 146 14 192 4
279 -15 127 -14 249 4 308 l14 45 79 6 c44 3 92 6 108 7 15 1 27 0 27 -3z
m-267 -47 c-8 -32 -8 -113 -2 -413 1 -77 -2 -185 -7 -240 -12 -114 -3 -259 20
-325 19 -55 14 -63 -13 -19 -46 75 -57 230 -32 450 13 119 13 133 -7 261 -32
196 -28 273 15 306 27 20 35 14 26 -20z m6083 -404 c69 -33 92 -136 43 -198
-103 -130 -300 -2 -224 145 33 62 112 86 181 53z m-5134 -212 l116 -4 31 -63
c17 -34 85 -140 151 -236 66 -95 119 -178 117 -183 -7 -22 -74 -46 -128 -46
-149 0 -322 102 -528 313 l-63 65 27 83 c42 127 34 120 102 96 40 -14 94 -21
175 -25z m-66 -430 c82 -62 189 -115 263 -132 75 -18 175 -8 214 20 l30 23 18
-24 c27 -36 88 -161 91 -188 3 -20 -3 -26 -32 -34 -61 -16 -168 -3 -248 31
-138 58 -476 262 -581 349 l-34 29 12 69 c7 38 14 72 16 75 2 3 44 -33 93 -80
50 -48 121 -110 158 -138z m149 -254 c77 -42 176 -89 220 -104 70 -23 91 -26
168 -21 48 2 87 1 87 -4 0 -5 -11 -16 -25 -25 -71 -46 -298 30 -620 208 -135
74 -210 129 -230 168 -8 16 -15 31 -15 34 0 2 62 -37 138 -87 75 -51 200 -127
277 -169z"/>
<path d="M10176 12990 c-319 -51 -592 -219 -613 -379 -4 -32 -14 -49 -44 -74
-95 -82 -158 -190 -196 -336 -21 -85 -25 -129 -33 -391 -5 -162 -14 -321 -19
-353 -15 -88 -55 -226 -117 -402 -77 -220 -104 -344 -104 -475 0 -163 35 -280
116 -396 69 -98 162 -160 286 -189 139 -33 182 -18 300 108 48 50 89 89 92 86
3 -3 12 -47 21 -99 49 -302 -29 -508 -254 -668 -36 -26 -209 -120 -385 -208
-176 -89 -322 -166 -324 -173 -9 -28 34 -20 117 23 49 25 94 46 99 46 13 0 31
-74 45 -187 l12 -88 150 -75 c203 -102 457 -185 655 -215 l45 -7 -76 44 c-210
122 -396 326 -529 582 l-41 79 90 48 c256 135 384 274 432 469 19 75 16 284
-5 379 -9 41 -14 76 -12 78 2 3 42 -27 88 -66 46 -39 117 -88 158 -109 68 -33
83 -37 155 -37 100 0 153 24 302 136 l103 78 0 -31 c0 -33 -75 -171 -110 -203
-23 -20 -26 -57 -7 -73 6 -5 37 -17 67 -26 l56 -16 12 -88 c16 -120 46 -212
85 -264 38 -51 117 -93 340 -183 81 -32 147 -63 147 -67 0 -16 -102 -211 -152
-292 -103 -167 -231 -309 -352 -392 l-51 -36 40 6 c76 11 301 77 415 122 112
45 276 126 357 177 l41 26 6 88 c10 130 16 173 27 173 5 0 9 -25 9 -55 0 -236
172 -456 401 -510 260 -61 528 79 619 322 97 259 -15 541 -262 662 -297 146
-647 -10 -739 -329 -7 -25 -14 -47 -15 -48 -1 -2 -72 25 -156 61 -84 35 -214
88 -288 117 -299 118 -354 152 -390 248 -23 59 -50 185 -50 229 0 24 2 25 48
19 26 -3 70 -8 99 -11 103 -12 315 41 432 106 222 126 431 389 522 659 27 80
33 114 37 217 8 195 -8 259 -183 747 -28 81 -59 195 -80 304 -63 316 -110 457
-210 619 -66 107 -208 247 -310 307 -146 85 -318 144 -495 172 -121 18 -348
26 -424 14z m299 -236 c197 -53 360 -173 480 -353 125 -189 178 -381 219 -792
27 -271 85 -438 201 -584 122 -154 149 -193 182 -262 69 -142 68 -269 -2 -410
-26 -53 -41 -73 -56 -73 -25 0 -24 22 4 68 51 80 72 188 56 280 -14 74 -81
199 -155 287 -186 222 -245 378 -279 737 -28 298 -63 447 -145 613 -92 189
-216 316 -386 396 -228 108 -472 99 -619 -22 -59 -49 -76 -71 -84 -113 -9 -42
-35 -41 -39 2 -9 90 151 213 318 246 48 9 245 -3 305 -20z m-755 -128 c0 -8
-5 -18 -11 -22 -6 -3 -20 -26 -31 -51 -16 -36 -17 -49 -8 -77 14 -43 92 -116
159 -150 53 -28 59 -34 39 -54 -28 -28 -204 103 -234 175 -25 58 -12 123 34
176 18 21 52 23 52 3z m1339 -27 c21 -29 23 -59 2 -59 -13 0 -61 59 -61 76 0
25 36 15 59 -17z m-732 -16 c246 -105 492 -377 571 -635 36 -114 52 -224 72
-488 30 -376 39 -418 137 -614 100 -200 159 -397 151 -506 -2 -32 -7 -45 -18
-45 -11 0 -18 25 -28 100 -17 127 -64 270 -140 422 -102 203 -121 287 -147
648 -18 259 -35 367 -77 492 -104 314 -484 644 -715 620 -58 -6 -136 -45 -153
-77 -26 -48 1 -104 79 -164 81 -61 60 -94 -24 -36 -57 39 -92 82 -106 131 -10
33 -10 45 4 73 18 39 71 82 124 102 63 24 184 13 270 -23z m865 -180 c50 -57
135 -274 170 -436 21 -93 23 -129 23 -422 1 -377 0 -374 116 -520 99 -125 130
-189 149 -312 8 -48 8 -69 -1 -79 -18 -22 -39 2 -39 45 0 89 -50 203 -138 312
-130 164 -133 174 -130 544 1 239 -1 307 -16 385 -23 124 -73 275 -131 389
-41 84 -48 111 -26 111 4 0 15 -8 23 -17z m-831 -148 c80 -42 214 -218 288
-376 40 -86 95 -248 87 -256 -2 -3 -21 0 -43 6 -88 25 -184 4 -250 -55 l-38
-34 24 -20 c31 -26 42 -26 147 11 89 31 152 35 176 11 6 -6 14 -99 18 -209 11
-270 37 -380 141 -601 27 -57 49 -109 49 -117 0 -25 -98 -160 -180 -248 -126
-134 -297 -266 -405 -312 -118 -50 -275 18 -454 195 -83 83 -273 316 -301 371
-37 70 -79 337 -100 620 -9 123 -8 156 5 210 8 35 31 164 50 286 19 121 44
249 55 284 44 129 106 183 239 210 70 13 189 1 256 -27 44 -18 55 -12 55 31 0
23 5 35 18 39 32 9 129 -2 163 -19z m-870 -1133 c5 -59 16 -153 24 -210 8 -56
15 -105 15 -108 0 -3 -14 5 -31 17 -47 33 -86 103 -105 186 l-16 73 43 91 c51
108 57 104 70 -49z m-136 -82 c3 -5 1 -37 -5 -71 -32 -176 -30 -395 6 -524 22
-81 22 -89 2 -93 -21 -4 -32 21 -55 123 -29 129 -17 490 18 558 11 19 25 22
34 7z m122 -822 c55 -54 66 -78 36 -78 -23 0 -113 89 -113 112 0 30 22 20 77
-34z m1730 -85 c6 -17 -66 -93 -88 -93 -28 0 -23 17 19 66 36 42 61 52 69 27z
m1098 -778 c14 -13 25 -34 25 -46 0 -34 38 -69 76 -69 17 0 42 -9 55 -19 24
-19 24 -22 24 -199 0 -163 -2 -182 -19 -201 -19 -20 -27 -21 -314 -21 -376 0
-342 -22 -342 219 0 166 1 176 22 198 13 14 33 23 53 23 43 0 73 24 81 65 12
64 38 75 186 75 124 0 130 -1 153 -25z"/>
<path d="M9810 11631 c-46 -14 -105 -49 -132 -78 -27 -28 -71 -114 -63 -122 3
-2 30 19 60 48 56 53 107 81 148 81 13 0 61 -11 107 -25 101 -30 114 -31 141
-4 20 20 20 21 2 41 -33 38 -113 68 -178 67 -33 0 -71 -4 -85 -8z"/>
<path d="M9952 11334 c-32 -22 -30 -69 4 -91 24 -15 29 -15 53 -2 36 20 41 71
9 93 -28 20 -38 20 -66 0z"/>
<path d="M10532 11334 c-43 -30 -16 -104 39 -104 43 0 65 73 31 103 -23 21
-41 21 -70 1z"/>
<path d="M10153 11102 c-19 -12 -43 -90 -43 -142 0 -71 48 -100 164 -100 110
1 182 52 180 130 -2 44 -29 100 -49 100 -19 0 -19 -11 3 -72 l17 -50 -32 -28
c-45 -41 -105 -55 -168 -41 -52 12 -85 35 -85 58 0 7 9 41 21 75 20 59 17 85
-8 70z"/>
<path d="M10051 10700 c-21 -12 14 -38 75 -56 77 -22 222 -22 311 0 83 21 114
39 97 56 -9 8 -30 6 -85 -11 -98 -31 -247 -31 -330 -1 -31 11 -62 17 -68 12z"/>
<path d="M12049 9227 c-122 -65 -147 -232 -48 -336 80 -84 227 -78 308 14 150
171 -59 428 -260 322z m194 -42 c74 -51 97 -145 54 -226 -33 -63 -85 -91 -159
-86 -99 6 -158 70 -158 170 0 62 25 108 79 144 49 33 133 32 184 -2z"/>
<path d="M7892 8084 c-153 -78 -96 -304 76 -304 24 0 52 9 73 23 103 69 106
197 7 270 -36 27 -114 32 -156 11z"/>
<path d="M8445 7849 c-4 -6 -3 -15 2 -20 5 -5 166 -8 389 -7 329 3 379 5 379
18 0 13 -50 15 -382 18 -269 1 -384 -1 -388 -9z"/>
<path d="M7873 7726 c-65 -21 -113 -55 -144 -105 -54 -85 -65 -81 237 -81
l265 0 -7 23 c-41 133 -204 209 -351 163z"/>
<path d="M8432 7588 c-7 -7 -12 -19 -12 -28 0 -9 5 -21 12 -28 9 -9 330 -12
1384 -12 1234 0 1374 2 1388 16 9 8 16 19 16 24 0 5 -7 16 -16 24 -14 14 -154
16 -1388 16 -1054 0 -1375 -3 -1384 -12z"/>
<path d="M8447 7173 c-34 -33 -57 -33 2116 -33 1168 0 2126 3 2130 6 3 3 3 12
0 20 -4 12 -315 14 -2122 14 -1165 0 -2121 -3 -2124 -7z"/>
<path d="M8445 6970 c-3 -5 -3 -14 0 -20 7 -11 4237 -15 4248 -4 3 3 3 12 0
20 -4 12 -315 14 -2123 14 -1402 0 -2121 -3 -2125 -10z"/>
<path d="M8444 6769 c-3 -6 -2 -15 3 -20 5 -5 856 -8 2129 -7 1876 3 2119 5
2119 18 0 13 -244 15 -2122 18 -1522 1 -2124 -1 -2129 -9z"/>
<path d="M7875 6011 c-36 -16 -114 -90 -115 -109 -1 -4 -5 -27 -9 -51 -41
-209 227 -337 367 -176 43 48 52 74 52 141 0 154 -157 258 -295 195z m93 -40
c20 -12 10 -46 -14 -49 -25 -4 -40 24 -23 44 13 16 19 17 37 5z m7 -206 c0
-96 -1 -100 -22 -103 -23 -3 -23 -2 -23 103 0 105 0 106 23 103 21 -3 22 -7
22 -103z"/>
<path d="M8442 5963 c3 -17 29 -18 388 -18 336 0 385 2 385 15 0 13 -51 15
-388 18 -366 2 -388 1 -385 -15z"/>
<path d="M8432 5708 c-7 -7 -12 -19 -12 -28 0 -9 5 -21 12 -28 9 -9 330 -12
1384 -12 1234 0 1374 2 1388 16 9 8 16 19 16 24 0 5 -7 16 -16 24 -14 14 -154
16 -1388 16 -1054 0 -1375 -3 -1384 -12z"/>
<path d="M7845 4996 c-229 -108 -176 -443 75 -473 69 -8 132 12 186 60 63 56
87 107 87 188 0 53 -5 76 -28 117 -64 118 -201 164 -320 108z m89 -72 c26 -41
27 -47 13 -61 -22 -22 -40 -12 -68 41 -21 40 -22 48 -9 56 25 16 34 12 64 -36z
m-67 -25 c21 -31 26 -51 24 -86 -3 -62 45 -132 90 -133 16 0 68 -84 59 -93 -3
-3 -14 -7 -26 -11 -64 -20 -214 187 -214 296 0 26 23 68 36 68 2 0 16 -18 31
-41z m212 -232 c22 -41 24 -49 11 -57 -26 -17 -36 -11 -63 38 -21 38 -24 51
-14 61 20 20 39 8 66 -42z"/>
<path d="M8445 4909 c-4 -6 -3 -15 2 -20 5 -5 166 -8 389 -7 329 3 379 5 379
18 0 13 -50 15 -382 18 -269 1 -384 -1 -388 -9z"/>
<path d="M8432 4648 c-7 -7 -12 -19 -12 -28 0 -9 5 -21 12 -28 9 -9 330 -12
1384 -12 1234 0 1374 2 1388 16 9 8 16 19 16 24 0 5 -7 16 -16 24 -14 14 -154
16 -1388 16 -1054 0 -1375 -3 -1384 -12z"/>
<path d="M5123 13101 c-23 -11 -46 -29 -53 -40 -13 -26 -13 -26 38 -1 59 29
91 25 148 -15 27 -19 57 -35 67 -35 29 0 32 29 6 57 -50 54 -131 67 -206 34z"/>
<path d="M5591 13002 c-13 -25 8 -56 35 -50 29 5 27 62 -3 66 -13 2 -26 -4
-32 -16z"/>
<path d="M5223 12973 c-12 -2 -27 -11 -34 -19 -11 -13 -6 -15 32 -13 24 1 59
-2 77 -6 46 -11 41 9 -8 29 -22 9 -41 15 -43 15 -1 -1 -12 -4 -24 -6z"/>
<path d="M5525 12840 c-4 -6 1 -22 9 -36 28 -42 -9 -84 -76 -84 -53 0 -61 10
-53 69 6 42 4 51 -8 51 -16 0 -37 -48 -37 -85 0 -64 82 -93 164 -57 65 29 81
85 38 135 -17 19 -28 22 -37 7z"/>
<path d="M5661 12687 c-23 -29 -124 -70 -184 -76 -48 -5 -63 -10 -65 -23 -3
-15 4 -18 45 -18 27 0 72 7 101 15 57 17 135 72 140 98 4 20 -21 23 -37 4z"/>
<path d="M5950 10544 c-98 -33 -290 -89 -387 -114 -40 -10 -56 -31 -34 -44 10
-7 237 55 431 117 91 29 135 48 135 58 0 23 -34 19 -145 -17z"/>
</g>
</svg>
