<svg xmlns="http://www.w3.org/2000/svg" viewBox="0 0 865.76 682.89"><path d="M743.44,19.64H481.24a26.77,26.77,0,0,0-26.53,27h0v539.8a26.79,26.79,0,0,0,26.53,27h262.2a26.8,26.8,0,0,0,26.56-27V46.66a26.79,26.79,0,0,0-26.56-27Zm9.91,550.14c.07,14.22-10.49,25.78-23.7,25.78H495.11c-13.21,0-23.78-11.56-23.78-25.7V67.12c0-28.93,10.63-30.35,23.78-30.35h47c2.73,0,5,3.1,5,6.95v1.65c0,9,5,9.05,11,9.05H666.74c6.11,0,11,0,11-9.05V43.72c0-3.85,2.21-6.95,4.95-6.95h47c13.13,0,23.77,3.84,23.77,30.35Z" fill="#183518"/><path d="M627.24,43.16H597.51a1.82,1.82,0,0,1-1.83-1.8v0h0a1.82,1.82,0,0,1,1.8-1.83h29.76a1.81,1.81,0,0,1,1.84,1.8v0h0a1.83,1.83,0,0,1-1.82,1.82Z" fill="#fff"/><path d="M751.39,69.2V571.86c0,14.22-10.55,25.78-23.77,25.78H493.08c-13.21,0-23.8-11.56-23.8-25.7V69.2c0-28.94,10.64-30.36,23.8-30.36h47c2.72,0,5,3.11,5,7v1.65c0,9,5,9,11,9H664.68c6.11,0,11,0,11-9V45.8c0-3.85,2.19-7,5-7h47C740.84,38.84,751.39,42.67,751.39,69.2Z" fill="#fff"/><path d="M533.94,48.06l-.45.45-.26.26A6.05,6.05,0,0,0,528.87,47a6.12,6.12,0,0,0-4.39,1.81l-.25-.24-.45-.47h0l.56-.49a7.09,7.09,0,0,1,1.34-.86,6.92,6.92,0,0,1,1.75-.58,8.81,8.81,0,0,1,.88-.11h1.37a5.5,5.5,0,0,1,1.65.38,7.36,7.36,0,0,1,2.13,1.23Z" fill="#c7c7c7"/><path d="M525.91,50.19l-.71-.71a5.17,5.17,0,0,1,7.31,0h0l-.73.73A4,4,0,0,0,528.85,49,4.14,4.14,0,0,0,525.91,50.19Z" fill="#c7c7c7"/><path d="M531.08,50.9l-.72.73a2.09,2.09,0,0,0-1.51-.63,2.07,2.07,0,0,0-1.5.63c-.23-.25-.48-.48-.71-.71a3.14,3.14,0,0,1,4.44,0Z" fill="#c7c7c7"/><path d="M529.5,52.28a.65.65,0,0,1-.65.64h0a.66.66,0,0,1-.64-.64.65.65,0,0,1,.64-.65h0a.63.63,0,0,1,.65.61Z" fill="#c7c7c7"/><path d="M489.68,49.43a1.87,1.87,0,1,1,1.86,1.87,1.86,1.86,0,0,1-1.86-1.87Z" fill="#c7c7c7"/><path d="M495.56,49.43a1.88,1.88,0,1,1,1.9,1.87h0a1.87,1.87,0,0,1-1.88-1.85Z" fill="#c7c7c7"/><path d="M501.45,49.43a1.87,1.87,0,1,1,1.92,1.87,1.87,1.87,0,0,1-1.92-1.87Z" fill="#c7c7c7"/><path d="M507.35,49.43a1.87,1.87,0,1,1,1.87,1.87A1.86,1.86,0,0,1,507.35,49.43Z" fill="#c7c7c7"/><path d="M513.28,49.43a1.88,1.88,0,1,1,1.9,1.87h0a1.86,1.86,0,0,1-1.86-1.87Z" fill="#c7c7c7"/><path d="M732.08,53.33H717.21v-6.6h14.87Zm-14.46-.41h14V47.06h-14Z" fill="#c7c7c7"/><rect x="718.3" y="47.67" width="9.81" height="4.66" fill="#c7c7c7"/><rect x="732.26" y="48.1" width="1.35" height="3.77" fill="#c7c7c7"/><path d="M593.67,537a4.18,4.18,0,1,1-4.18-4.19,4.19,4.19,0,0,1,4.18,4.19Z" fill="#dbdbdb"/><path d="M619.13,537a6.33,6.33,0,1,1-6.32-6.32h0A6.33,6.33,0,0,1,619.13,537Z" fill="#183518"/><path d="M640.29,537a4.18,4.18,0,1,1-4.18-4.19,4.18,4.18,0,0,1,4.18,4.19Z" fill="#dbdbdb"/><path d="M644.6,217.15a61.35,61.35,0,1,1,19.91-19.91A61.42,61.42,0,0,1,644.6,217.15Z" fill="#008000"/><circle cx="612.33" cy="157.98" r="18.66" transform="translate(-10.92 50.92) rotate(-4.72)" fill="#fff"/><path d="M644.6,209.43v7.72a61.42,61.42,0,0,1-64.53,0v-7.68a32.27,32.27,0,0,1,64.53,0Z" fill="#fff"/><rect x="602.87" y="493.29" width="17.34" height="17.34" fill="#008000"/><path d="M609,503.84h-2.31v-2.65h2.26v-2.61a2.92,2.92,0,0,1,2.59-2.81,19.91,19.91,0,0,1,2.89,0v2.34h-1a7.37,7.37,0,0,0-.94,0,.86.86,0,0,0-.72.85v2.09h2.64c-.12.86-.22,1.65-.33,2.48a.89.89,0,0,1-.33.17h-2v6.8h-2.81Z" fill="#fff"/><rect x="555.07" y="420.6" width="112.76" height="35.86" fill="#008000"/><rect x="502.77" y="308.47" width="219.16" height="19.41" fill="#e6e7e8"/><rect x="502.77" y="355.33" width="219.16" height="19.41" fill="#e6e7e8"/><rect x="502.77" y="283.18" width="219.16" height="1" fill="#ebebeb"/><rect x="503.71" y="389.36" width="219.16" height="1" fill="#ebebeb"/><rect x="503.58" y="477.08" width="88.94" height="1" fill="#ebebeb"/><rect x="623.36" y="477.97" width="88.94" height="1" fill="#ebebeb"/><path d="M489.83,437.25c0,1.92-.05,3.84-.12,5.74-3.51,91-90.32,163.85-196.92,163.85-108.82,0-197-75.93-197-169.59,0-29.47,8.73-57.18,24.08-81.32,33.46-52.61,98.37-88.28,173-88.28C401.62,267.65,489.83,343.59,489.83,437.25Z" fill="#fff"/><path d="M292.79,607.34c-108.92,0-197.53-76.3-197.53-170.09a152,152,0,0,1,24.16-81.59c34.72-54.59,101.15-88.51,173.37-88.51,108.92,0,197.54,76.31,197.54,170.1,0,1.86,0,3.74-.12,5.76-1.71,44.23-23,85.57-60,116.41S344.38,607.34,292.79,607.34Zm0-339.19c-71.88,0-138,33.74-172.52,88.05a151,151,0,0,0-24,81.05c0,93.24,88.16,169.09,196.53,169.09,106.61,0,192.88-71.76,196.42-163.37.08-2,.12-3.88.12-5.72C489.33,344,401.16,268.15,292.79,268.15Z" fill="#183518"/><g opacity="0.25"><path d="M487.87,437.25c0,1.92,0,3.84-.11,5.74-33.46,52.61-98.37,88.28-172.95,88.28-108.83,0-197-75.93-197-169.59,0-1.92,0-3.85.12-5.75,33.46-52.61,98.36-88.28,173-88.28C399.66,267.65,487.87,343.59,487.87,437.25Z" fill="#183518"/></g><path d="M354.86,581.43l-1.26,23.1s15.94,5.46,25.61,0v-23.1Z" fill="#fff"/><path d="M368.24,607.48a50.79,50.79,0,0,1-14.8-2.48l-.36-.12,1.31-24h25.32v23.89l-.25.15A23,23,0,0,1,368.24,607.48Zm-14.12-3.31c2.38.75,16,4.69,24.59.07V581.93H355.33Z" fill="#183518"/><path d="M401.75,587.09,405.49,607s14,2.61,25-5l-6.72-26.88Z" fill="#fff"/><path d="M411.29,607.88a36.09,36.09,0,0,1-5.89-.43l-.34-.06-3.87-20.56,22.87-12.44,7,27.84-.28.19C424.19,607,416.47,607.88,411.29,607.88Zm-5.38-1.36c2.17.32,14.32,1.76,24-4.72l-6.48-25.92-21.09,11.48Z" fill="#183518"/><polygon points="327.56 338.7 358.64 376.92 365.36 348.78 348.74 323.7 327.56 338.7" fill="#fff"/><path d="M358.89,378,326.84,338.6l22-15.61,17,25.69Zm-30.6-39.22,30.1,37,6.43-26.94L348.6,324.41Z" fill="#183518"/><path d="M454.77,566.35c-42.16,26.86-78.59,24.27-101.19,17.77a101,101,0,0,1-19.74-7.94,8.5,8.5,0,0,1-4.47-7.71l2-75.23c0-23.09-30.65-26.87-30.65-26.87-34.91-3.94-55.88-13.46-66.69-20a38.37,38.37,0,0,1-16.64-20.73c-11-33.54,20.25-68.53,20.25-68.53l41.3,3,23.88,1.73,1.8,11.3,14.94,6.64a132.65,132.65,0,0,0,33.4,9.77c70.29,11,75.84,71,75.84,71,3.06,27.47,22.27,76.86,29.55,94.84A9,9,0,0,1,454.77,566.35Z" fill="#183518"/><path d="M479.84,646.93c-1.65,3.05-6,2.25-6,2.25l-73.38-14.83L402,606.14c17.82,2.07,26.1-5.21,26.1-5.21l41.33,23.66c11.43,7.44,11,18.87,11,18.87A6.4,6.4,0,0,1,479.84,646.93Z" fill="#183518"/><path d="M472.45,653.25,407.67,640a4.6,4.6,0,0,1-3.68-4.5v-1.61l70.14,14.28s4.13.77,5.71-2.14h0C480.52,653.17,472.45,653.25,472.45,653.25Z" fill="#fff"/><path d="M472.4,653.75h0l-64.78-13.21a5.12,5.12,0,0,1-4.08-5v-2.22l70.74,14.4s3.79.67,5.17-1.89l.14-.26h.75l0,.45a6.44,6.44,0,0,1-1.48,5.13c-2.28,2.53-6.24,2.59-6.41,2.6Zm-67.91-19.21v1a4.11,4.11,0,0,0,3.28,4l64.72,13.2c.45,0,3.77-.21,5.63-2.27a5,5,0,0,0,1.24-3c-2,1.8-5.17,1.24-5.32,1.21Z" fill="#183518"/><path d="M266.74,206.26v20.31s6.23,5,18.83,3.36v-9.57Z" fill="#fff"/><path d="M280.51,230.78c-9.24,0-13.86-3.64-14.09-3.82l-.18-.15V205.26l19.83,14.85v10.26l-.44.06A39.69,39.69,0,0,1,280.51,230.78Zm-13.27-4.46c1.1.77,7.06,4.49,17.83,3.17v-8.88l-17.83-13.35Z" fill="#183518"/><path d="M285.57,220.36v9.57s-18.76,1-18.83-23.67Z" fill="#183518"/><path d="M306.48,316.23a19,19,0,0,0-.78,1.76c-5.39,13.8-2.91,43.81-2.91,43.81-10.92,6.72-42.42,5-42.42,5-23.21-.3-24-9.43-22.41-14.89A49,49,0,0,0,240,338.69a45.69,45.69,0,0,0-.32-6,81,81,0,0,0-2.06-10.59,94.81,94.81,0,0,1-2.85-16.56l-3.78-47-1.3-16.07c-1.05-7.77,31.77-12.6,31.77-12.6,1.95-5,5.26-3.36,5.26-3.36,7.2,5,18.83,3.36,18.83,3.36,2.52-.42,1.68,2.1,1.68,2.1-.84,8,5.46,6.72,5.46,6.72a13.69,13.69,0,0,1,5.85,1.81,10.33,10.33,0,0,1,4.65,5.75l7.55,31.45C317.06,298.29,306.48,316.23,306.48,316.23Z" fill="#fff"/><path d="M269.15,367.53c-4.9,0-8.39-.17-8.81-.2-11.23-.14-18.53-2.37-21.67-6.63-1.78-2.42-2.19-5.49-1.18-8.89a48.8,48.8,0,0,0,2-13.12,44.41,44.41,0,0,0-.32-5.9,80.93,80.93,0,0,0-2-10.52,95.51,95.51,0,0,1-2.87-16.65l-5.08-63.05c-1.05-7.81,27.4-12.41,31.91-13.09a5.72,5.72,0,0,1,3-3.43,3.72,3.72,0,0,1,2.82.07c7,4.91,18.42,3.33,18.54,3.32a2,2,0,0,1,2,.5,2.47,2.47,0,0,1,.26,2.19c-.25,2.47.18,4.22,1.27,5.23a4.63,4.63,0,0,0,3.6.9l.07,0h.07a14.35,14.35,0,0,1,6.07,1.88,10.76,10.76,0,0,1,4.87,6.06l7.56,31.45c6.2,20.19-3.95,38.16-4.33,38.83s-.52,1.11-.75,1.7c-5.29,13.54-2.91,43.29-2.89,43.59l0,.3-.26.16C295.67,366.76,279.36,367.53,269.15,367.53ZM265.47,226.8a2.74,2.74,0,0,0-1,.19,5.06,5.06,0,0,0-2.54,3.13l-.1.27-.29,0c-9,1.32-32.15,6.06-31.34,12l5.07,63.08A95.21,95.21,0,0,0,238.13,322a81.38,81.38,0,0,1,2.06,10.66,46.48,46.48,0,0,1,.33,6,49.57,49.57,0,0,1-2.08,13.39c-.92,3.14-.58,5.83,1,8,2.95,4,10,6.1,20.91,6.24.33,0,31,1.57,41.88-4.81-.26-3.4-2.16-30.56,3-43.72.24-.62.5-1.22.79-1.8l0,0c.1-.18,10.4-18,4.24-38.07l-7.57-31.48A10,10,0,0,0,298.3,241a13.28,13.28,0,0,0-5.57-1.74,5.45,5.45,0,0,1-4.39-1.15c-1.35-1.23-1.89-3.29-1.59-6.12l0-.11c.08-.23.23-1,0-1.28s-.7-.23-1.07-.17-11.92,1.65-19.2-3.44A2.65,2.65,0,0,0,265.47,226.8Z" fill="#183518"/><path d="M347.72,325.26,327.56,338.7S309.88,338,305.7,318h0a19,19,0,0,1,.78-1.76s10.58-17.94,4.28-38.47l-2-8.4h0l-5.53-23.05a10.33,10.33,0,0,0-4.65-5.75s5.07-2.23,17.66,20.87l29.4,47.45s.48.62,1.11,1.64h0C348.61,313.57,351.8,320.24,347.72,325.26Z" fill="#fff"/><path d="M327.71,339.2h-.17c-.18,0-18.12-.93-22.33-21.11v-.19l0-.09c.24-.62.5-1.22.79-1.8.12-.21,10.42-18,4.26-38.1l-7.57-31.48A10,10,0,0,0,298.3,241l-.82-.5.88-.38c.56-.26,5.84-1.77,18.3,21.08l29.39,47.43s.47.6,1.11,1.64l.07.12c1.76,2.9,5.17,9.92.88,15.2l-.11.1Zm-21.49-21.15c3.89,18.47,19.35,20,21.2,20.14l20-13.3c3.74-4.68.94-10.84-1.07-14.1l-.08-.13c-.57-.91-1-1.46-1-1.47l-29.43-47.5c-7.69-14.09-12.5-18.62-15-20a10.25,10.25,0,0,1,2.87,4.54l7.56,31.45c6.28,20.47-4.24,38.66-4.34,38.85C306.67,317,306.43,317.5,306.22,318.05Z" fill="#183518"/><path d="M347.72,325.26,327.56,338.7S309.88,338,305.7,318h0a19,19,0,0,1,.78-1.76s10.58-17.94,4.28-38.47l-2-8.4a72.18,72.18,0,0,1,7.89,40.78s-1.26,24.78,12.18,19.74c0,0,19-9.73,17.91-19.36C348.61,313.57,351.8,320.24,347.72,325.26Z" fill="#183518"/><path d="M290.61,311s-36.54-3.78-43.68,14.7l-6.91,13a45.69,45.69,0,0,0-.32-6,81,81,0,0,0-2.06-10.59,94.81,94.81,0,0,1-2.85-16.56l-3.78-47s7.94-.62,9.41,10.76c0,0,3.57,30.28,19.11,29.86l49.52-2.55S311.18,310.14,290.61,311Z" fill="#183518"/><path d="M310.76,178v26.53a21.74,21.74,0,0,1-.82,6,22,22,0,0,1-43.27-6V161.9h28A16.09,16.09,0,0,1,310.76,178Z" fill="#fff"/><path d="M288.71,227.07a22.57,22.57,0,0,1-22.54-22.55V161.4h28.5A16.61,16.61,0,0,1,311.26,178v26.53a22.49,22.49,0,0,1-22.55,22.55ZM267.17,162.4v42.12a21.55,21.55,0,0,0,42.29,5.84,21.11,21.11,0,0,0,.8-5.84V178a15.6,15.6,0,0,0-15.59-15.59Z" fill="#183518"/><path d="M309.89,250.88c-8-11.8-11.33-10.32-11.33-10.32a18,18,0,0,0-4.47-1.59,8.67,8.67,0,0,0-2-.18c-6.19.12-4.81-6.76-4.81-6.76a1.51,1.51,0,0,0-1.68-2.1v-3.59a21.32,21.32,0,0,0,13.71-2.46c11.69-6.76,11.48-19.36,11.48-19.36V180a18,18,0,0,0-3.15-10.34,14.27,14.27,0,0,0-14.48-6c-21.56-3.59-26,27.33-26.43,30.41l0,.24.07,32.34c-3.3-1.68-5.26,3.36-5.26,3.36-27,4.21-30.77,10-30.77,10-14.12,1.63-17.31,30.34-17.31,30.34-2.45,20.21-13.78,38.29-13.78,38.29a64.55,64.55,0,0,1-14.29-8.74,99.57,99.57,0,0,1-12.73-12A54.19,54.19,0,0,0,184.77,274c-5.46,2.94-17.21,7.13-17.21,7.13-11.9-3-12.94-15.84-12.62-22.62a5.71,5.71,0,0,1,4.14-5.22c53.73-15.06,75.44-67.52,79.25-77.88a31.11,31.11,0,0,1,1.77-4c24.3-45.57,58.46-16.7,58.46-16.7C331.29,149.66,309.89,250.88,309.89,250.88Z" fill="#008000"/><g opacity="0.2"><path d="M293.13,163.58s-2.52-8.4,6.3-6.3c0,0,14.69,2.29,11.33,24.24v-2.67a15.13,15.13,0,0,0-1.43-6.44C307.3,168.13,302.72,162.21,293.13,163.58Z" fill="#231f20"/></g><g opacity="0.2"><path d="M266.74,226.57c-3.3-1.68-5.26,3.36-5.26,3.36-27,4.21-30.77,10-30.77,10-14.12,1.63-17.31,30.34-17.31,30.34-2.45,20.21-13.78,38.29-13.78,38.29a64.55,64.55,0,0,1-14.29-8.74c4.89-3.06,13.39-10.68,19.61-28.76,0,0,8.1-30.09,22.92-39.41a19.26,19.26,0,0,1,6.28-2.45c4.2-.89,19.22-5.57,23.43-27.68l9.1-35.64,0,28.08Z" fill="#231f20"/></g><path d="M260.79,202.21s-10.08,43.48,5.88,56.39c0,0-5.76-19.84-3.51-35l3.58-21.43Z" fill="#008000"/><ellipse cx="262.89" cy="195.91" rx="6.72" ry="9.24" fill="#fff"/><path d="M262.89,205.65c-4,0-7.22-4.37-7.22-9.74s3.24-9.74,7.22-9.74,7.22,4.37,7.22,9.74S266.87,205.65,262.89,205.65Zm0-18.48c-3.43,0-6.22,3.93-6.22,8.74s2.79,8.74,6.22,8.74,6.22-3.92,6.22-8.74S266.32,187.17,262.89,187.17Z" fill="#183518"/><g opacity="0.2"><path d="M285.57,226.35v3.58a1.51,1.51,0,0,1,1.68,2.1s-1.47,6.93,5,6.77a6.45,6.45,0,0,1,1.39.08,18.19,18.19,0,0,1,4.93,1.68s6.43-7.8,7.79-23C306.35,217.54,299.22,228.46,285.57,226.35Z" fill="#231f20"/></g><path d="M432.07,372l-.68,0c-6.4-.52-11-8.51-10.24-17.8a21.26,21.26,0,0,1,4.3-11.56c2.45-3.06,5.54-4.61,8.68-4.34s5.94,2.27,7.87,5.68a22.73,22.73,0,0,1-1.92,23.68C437.79,370.42,435,372,432.07,372Z" fill="#fff"/><path d="M432.07,372.45l-.72,0c-6.68-.54-11.48-8.76-10.7-18.33a21.74,21.74,0,0,1,4.41-11.84c2.57-3.19,5.81-4.81,9.11-4.52s6.25,2.38,8.27,5.94a23.22,23.22,0,0,1-2,24.23C438.1,370.84,435.12,372.45,432.07,372.45Zm1.37-33.75c-2.74,0-5.42,1.47-7.6,4.18a20.84,20.84,0,0,0-4.2,11.29c-.73,9,3.66,16.76,9.79,17.26,3,.24,5.92-1.25,8.26-4.16a22.24,22.24,0,0,0,1.88-23.11c-1.85-3.26-4.51-5.19-7.48-5.43C433.87,338.71,433.66,338.7,433.44,338.7Z" fill="#183518"/><polygon points="349.7 430.01 260.62 408.12 356.29 386.57 346.46 427.34 350.34 427.34 349.7 430.01" fill="#fff"/><polygon points="346.67 427.1 296.28 414.08 353.77 397.02 346.67 427.1" fill="#e6e7e8"/><polygon points="260.62 408.12 349.7 430.01 349.7 436.85 260.62 414.06 260.62 408.12" fill="#008000"/><polygon points="349.7 436.85 470.35 402.95 470.35 395.92 349.7 430.01 349.7 436.85" fill="#008000"/><g opacity="0.2"><polygon points="349.7 436.85 470.35 402.95 470.35 395.92 349.7 430.01 349.7 436.85" fill="#231f20"/></g><path d="M210.87,359.53l53.7,30.4s5,5,17.64,1.68c0,0,7-1.17,11.68,6.3a2.85,2.85,0,0,0,2.26,1.38c.93,0,2-.4,2.41-2.27,0,0,2.37,6.17,6,2.27a2.78,2.78,0,0,0,3.31,1.29s3.7.69,2-7.29c0,0-3.36-20.57-18.89-20.15l-21.84.84L232.78,345.5A38.61,38.61,0,0,0,210.87,359.53Z" fill="#fff"/><path d="M307,401.19a3.26,3.26,0,0,1-2.51-1.12,3.28,3.28,0,0,1-2.84,1,5.11,5.11,0,0,1-3-2.72,2.62,2.62,0,0,1-2.5,1.48,3.32,3.32,0,0,1-2.66-1.62c-4.42-7.1-11.11-6.08-11.18-6.06-12.16,3.24-17.41-1.21-18-1.77l-54.15-30.66.35-.45A39.5,39.5,0,0,1,232.7,345l.22,0,36.43,28.5,21.66-.83c15.8-.41,19.37,20.36,19.41,20.57.75,3.57.55,6-.61,7.16a2.34,2.34,0,0,1-1.88.72A4.36,4.36,0,0,1,307,401.19Zm-2.29-2.78.31.67a2.3,2.3,0,0,0,2.75,1l.1,0,.1,0a1.37,1.37,0,0,0,1.12-.43c.51-.53,1.21-2,.33-6.26,0-.22-3.41-19.77-18-19.77H291l-22,.84-.14-.11L232.66,346a38.64,38.64,0,0,0-21,13.35l53.25,30.14.05.05c.05.05,5,4.78,17.16,1.55.12,0,7.47-1.15,12.23,6.51a2.35,2.35,0,0,0,1.86,1.15c1,0,1.6-.58,1.9-1.88l.37-1.58.59,1.52c.31.79,1.42,2.92,2.84,3.2a2.64,2.64,0,0,0,2.35-1.1Z" fill="#183518"/><path d="M416.22,659.54C388.07,652.87,347.3,629,347.3,629a146.23,146.23,0,0,1,6.26-24.37c16,5.86,25.61,0,25.61,0,3.36,5,33.65,31.45,33.65,31.45C427.53,645.67,416.22,659.54,416.22,659.54Z" fill="#183518"/><circle cx="366.2" cy="623.01" r="6.72" fill="#fff"/><path d="M416.17,659.55a7.73,7.73,0,0,1-2.17,2.54,6.52,6.52,0,0,1-6.47.56l-58.13-26.2a5.24,5.24,0,0,1-2.1-7.56S388,652.83,416.17,659.55Z" fill="#fff"/><path d="M410.32,663.75a7.24,7.24,0,0,1-3-.65L349.2,636.91a6.08,6.08,0,0,1-3.11-3.75,6.39,6.39,0,0,1,.79-4.54l.26-.41.41.25c.41.24,41,24,68.74,30.6l.64.15-.32.57a8.11,8.11,0,0,1-2.32,2.71A6.72,6.72,0,0,1,410.32,663.75ZM347.5,629.58a5.27,5.27,0,0,0-.43,3.35,5.08,5.08,0,0,0,2.58,3.09l58.08,26.17a6,6,0,0,0,6-.51,6.86,6.86,0,0,0,1.7-1.81C389.13,653.39,352,632.2,347.5,629.58Z" fill="#183518"/><circle cx="420.37" cy="622.17" r="6.72" fill="#fff"/><ellipse cx="286.03" cy="190.73" rx="2.58" ry="3.69" fill="#183518"/><ellipse cx="301.91" cy="191.1" rx="2.58" ry="3.69" fill="#183518"/><path d="M234.35,345.08c-14.54,3.75-21.47,11.55-24,15.19a1.28,1.28,0,0,1-2.18-.15c-2.08-4-4.36-5.17-5.93-5.48a14,14,0,0,1-6.51-3.12c-7.23-6.42-7.21-15.62-5.29-23.37a56.15,56.15,0,0,1,6.11-14.65,119.26,119.26,0,0,0,8.53-15.18,99.8,99.8,0,0,0,8.33-28c4.54-31,17.31-30.34,17.31-30.34,10.11.84,13.73,12.08,14.11,26.49.74,27.72-10.49,67.21-10.49,67.21-.94,5.67-.16,8.42.71,9.73A1.14,1.14,0,0,1,234.35,345.08Z" fill="#fff"/><path d="M209.3,361.31h-.11a1.77,1.77,0,0,1-1.47-1c-2-3.79-4.14-4.93-5.59-5.22a14.51,14.51,0,0,1-6.74-3.24c-6.09-5.4-8-13.65-5.45-23.86a57.13,57.13,0,0,1,6.17-14.79,119.15,119.15,0,0,0,8.51-15.14,99.06,99.06,0,0,0,8.29-27.87c4.55-31.12,17.29-30.79,17.83-30.77,9.23.77,14.13,9.85,14.58,27,.73,27.48-10.39,67-10.51,67.36-.91,5.49-.15,8.11.64,9.32a1.52,1.52,0,0,1,.15,1.43,1.64,1.64,0,0,1-1.13,1h0c-14.59,3.77-21.45,11.74-23.72,15A1.78,1.78,0,0,1,209.3,361.31Zm21.35-120.85c-.54,0-12.43.38-16.75,29.91a100.13,100.13,0,0,1-8.38,28.16A119,119,0,0,1,197,313.78a56.39,56.39,0,0,0-6,14.49c-2.46,10-.73,17.66,5.14,22.87a13.51,13.51,0,0,0,6.28,3c1.66.33,4.1,1.6,6.27,5.73a.8.8,0,0,0,.65.43.75.75,0,0,0,.68-.33c2.33-3.34,9.38-11.54,24.29-15.39h0a.65.65,0,0,0,.45-.4.56.56,0,0,0,0-.52c-.9-1.37-1.76-4.22-.78-10.09.12-.45,11.21-39.79,10.48-67.11-.44-16.54-5-25.29-13.65-26Z" fill="#183518"/><path d="M298.56,397.53a.51.51,0,0,1-.5-.49c0-.38-.43-9.43-8.54-10a.51.51,0,0,1-.47-.53.49.49,0,0,1,.54-.46c9,.59,9.47,10.83,9.47,10.93a.5.5,0,0,1-.48.51Z" fill="#183518"/><path d="M304.59,399.79h-.07a.49.49,0,0,1-.43-.55,16.37,16.37,0,0,0-5.86-13.5.5.5,0,1,1,.66-.75,17,17,0,0,1,6.19,14.38A.5.5,0,0,1,304.59,399.79Z" fill="#183518"/><path d="M279.59,237.82a26.18,26.18,0,0,1-15.89-5.39.51.51,0,0,1-.1-.7.5.5,0,0,1,.7-.1,24.71,24.71,0,0,0,22.11,4.2.5.5,0,1,1,.35.94A22.88,22.88,0,0,1,279.59,237.82Z" fill="#183518"/><path d="M286.59,200.4a9.49,9.49,0,1,1,9.49-9.49A9.49,9.49,0,0,1,286.59,200.4Zm0-18a8.49,8.49,0,1,0,8.49,8.49A8.5,8.5,0,0,0,286.59,182.42Z" fill="#183518"/><path d="M306.35,199.9a9.49,9.49,0,1,1,9.49-9.49A9.5,9.5,0,0,1,306.35,199.9Zm0-18a8.49,8.49,0,1,0,8.49,8.49A8.49,8.49,0,0,0,306.35,181.92Z" fill="#183518"/><path d="M297.47,205.65h-4.68a.5.5,0,0,1-.5-.5.51.51,0,0,1,.5-.5h4.68a.93.93,0,0,0,.74-.36,1,1,0,0,0,.16-.81l-2-7.44a.5.5,0,1,1,1-.25l2,7.44a1.93,1.93,0,0,1-1.87,2.42Z" fill="#183518"/><path d="M349.7,430l27.87-116.38,121.72-20.14a.58.58,0,0,1,.65.72L473.71,395Z" fill="#008000"/><g opacity="0.2"><path d="M349.7,430l27.87-116.38,121.72-20.14a.58.58,0,0,1,.65.72L473.71,395Z" fill="#fff"/></g><polygon points="500.17 293.34 492.35 289.6 375.02 308.88 346.46 427.34 350.34 427.34 377.57 313.63 500.17 293.34" fill="#008000"/><ellipse cx="431.04" cy="353.79" rx="13.23" ry="9.97" transform="translate(5.98 714.74) rotate(-79.72)" fill="#fff"/><g opacity="0.2"><polygon points="355.19 428.46 423.67 306.05 443.39 302.79 374.08 423.13 355.19 428.46" fill="#fff"/></g><g opacity="0.2"><polygon points="394.79 417.29 457.94 300.38 494.9 294.27 432.22 406.7 394.79 417.29" fill="#fff"/></g><path d="M296,216.29a13.61,13.61,0,0,1-7.6-2.88.52.52,0,0,1-.07-.71.51.51,0,0,1,.71-.06c.29.24,7.21,5.86,12.5,0a.51.51,0,0,1,.71,0,.5.5,0,0,1,0,.71A8.28,8.28,0,0,1,296,216.29Z" fill="#183518"/><path d="M584.33,243.93V258.6h-2.77V243.93Z" fill="#008000"/><path d="M591.51,257.83a6.88,6.88,0,0,1-2.58-2.53,7.13,7.13,0,0,1-.95-3.66,7,7,0,0,1,.95-3.63,6.88,6.88,0,0,1,2.58-2.53,7.46,7.46,0,0,1,7.14,0,6.76,6.76,0,0,1,2.56,2.53,7,7,0,0,1,.94,3.63,7.13,7.13,0,0,1-.94,3.66,6.72,6.72,0,0,1-2.57,2.53,7.44,7.44,0,0,1-7.13,0Zm5.77-2.13a3.88,3.88,0,0,0,1.48-1.62,5.76,5.76,0,0,0,0-4.87,3.8,3.8,0,0,0-1.48-1.59,4.62,4.62,0,0,0-4.41,0,3.84,3.84,0,0,0-1.5,1.59,5.76,5.76,0,0,0,0,4.87,3.92,3.92,0,0,0,1.5,1.62,4.62,4.62,0,0,0,4.41,0Z" fill="#008000"/><path d="M615.43,248.93a3.23,3.23,0,0,0-1.31-1.33,4,4,0,0,0-1.94-.46,4.24,4.24,0,0,0-2.18.56,3.92,3.92,0,0,0-1.49,1.58,5.65,5.65,0,0,0,0,4.8,3.89,3.89,0,0,0,1.52,1.59,4.48,4.48,0,0,0,2.26.55,3.94,3.94,0,0,0,2.6-.84,4,4,0,0,0,1.32-2.35h-4.75v-2.12H619v2.42a6.55,6.55,0,0,1-1.19,2.67,6.78,6.78,0,0,1-2.35,2,7,7,0,0,1-3.22.74,7.31,7.31,0,0,1-3.62-.9,6.56,6.56,0,0,1-2.53-2.51,7.63,7.63,0,0,1,0-7.3,6.52,6.52,0,0,1,2.53-2.52,7.29,7.29,0,0,1,3.6-.9,7.19,7.19,0,0,1,4.06,1.14,5.77,5.77,0,0,1,2.38,3.2Z" fill="#008000"/><path d="M625.38,244.76V258.6h-2.77V244.76Z" fill="#008000"/><path d="M641.53,258.6h-2.77l-6.28-9.49v9.49H629.7V244.74h2.78l6.28,9.52v-9.52h2.77Z" fill="#008000"/><path d="M504.72,291.44v2.7h2.93V295h-2.93v2.77H508v.87h-4.34v-8.07H508v.86Z" fill="#183518"/><path d="M518.53,292.5a2.26,2.26,0,0,1,.92.92,3.12,3.12,0,0,1,.33,1.49v3.74h-1v-3.59a2.07,2.07,0,0,0-.47-1.45,1.86,1.86,0,0,0-2.57,0,2.17,2.17,0,0,0-.49,1.52v3.49h-1v-3.59a2.07,2.07,0,0,0-.46-1.45,1.87,1.87,0,0,0-2.58,0,2.17,2.17,0,0,0-.48,1.52v3.49h-1v-6.34h1v.91a2.12,2.12,0,0,1,.84-.76,2.47,2.47,0,0,1,1.16-.26,2.83,2.83,0,0,1,1.41.35,2.16,2.16,0,0,1,.91,1.06,2,2,0,0,1,.88-1,2.55,2.55,0,0,1,1.36-.37A2.79,2.79,0,0,1,518.53,292.5Z" fill="#183518"/><path d="M521.5,293.75a2.9,2.9,0,0,1,2.62-1.54,2.8,2.8,0,0,1,1.44.36,2.34,2.34,0,0,1,.92.9v-1.16h1.06v6.34h-1.06v-1.18a2.56,2.56,0,0,1-.93.92,3,3,0,0,1-3-.06,2.89,2.89,0,0,1-1.08-1.16,3.65,3.65,0,0,1-.39-1.71A3.6,3.6,0,0,1,521.5,293.75Zm4.69.47a2.2,2.2,0,0,0-.78-.82,2.23,2.23,0,0,0-1.08-.28,2.07,2.07,0,0,0-1.08.28,2,2,0,0,0-.77.81,2.48,2.48,0,0,0-.29,1.25,2.55,2.55,0,0,0,.29,1.26,2,2,0,0,0,.77.82,2.08,2.08,0,0,0,1.08.29,2.08,2.08,0,0,0,1.86-1.11,2.62,2.62,0,0,0,.29-1.25A2.59,2.59,0,0,0,526.19,294.22Z" fill="#183518"/><path d="M529.35,291.07a.69.69,0,0,1-.2-.5.73.73,0,0,1,.2-.51.69.69,0,0,1,.51-.21.64.64,0,0,1,.49.21.69.69,0,0,1,.21.51.66.66,0,0,1-.21.5.64.64,0,0,1-.49.21A.69.69,0,0,1,529.35,291.07Zm1,1.24v6.34h-1v-6.34Z" fill="#183518"/><path d="M533.22,290.09v8.56h-1.06v-8.56Z" fill="#183518"/><path d="M509.5,314.05v4.37a1.87,1.87,0,0,0,.45,1.37,2,2,0,0,0,2.5,0,1.87,1.87,0,0,0,.45-1.37v-4.37h.9v4.36a2.83,2.83,0,0,1-.35,1.45,2.19,2.19,0,0,1-.93.88,3.05,3.05,0,0,1-1.33.29,3,3,0,0,1-1.32-.29,2.19,2.19,0,0,1-.93-.88,2.83,2.83,0,0,1-.34-1.45v-4.36Z" fill="#a6a6a6"/><path d="M516.11,320.83a2,2,0,0,1-.79-.59,1.61,1.61,0,0,1-.31-.88h.93a.91.91,0,0,0,.38.66,1.42,1.42,0,0,0,.9.26,1.26,1.26,0,0,0,.81-.23.69.69,0,0,0,.3-.57A.56.56,0,0,0,518,319a4.14,4.14,0,0,0-1-.34,8.13,8.13,0,0,1-1-.33,1.7,1.7,0,0,1-.65-.48,1.4,1.4,0,0,1,0-1.61,1.66,1.66,0,0,1,.71-.55,2.44,2.44,0,0,1,1-.2,2.22,2.22,0,0,1,1.45.45,1.64,1.64,0,0,1,.6,1.25h-.9a1,1,0,0,0-.34-.68,1.24,1.24,0,0,0-.84-.26,1.26,1.26,0,0,0-.77.21.62.62,0,0,0-.29.54.6.6,0,0,0,.17.44,1.23,1.23,0,0,0,.44.28,5.39,5.39,0,0,0,.73.23,7.43,7.43,0,0,1,.95.32,1.66,1.66,0,0,1,.63.46,1.26,1.26,0,0,1,.27.8,1.33,1.33,0,0,1-.25.8,1.58,1.58,0,0,1-.7.56,2.4,2.4,0,0,1-1,.21A2.83,2.83,0,0,1,516.11,320.83Z" fill="#a6a6a6"/><path d="M525.4,318.58h-4.34a1.71,1.71,0,0,0,1.77,1.7,1.66,1.66,0,0,0,1-.27,1.43,1.43,0,0,0,.55-.73h1a2.26,2.26,0,0,1-.87,1.27,2.63,2.63,0,0,1-1.62.5,2.79,2.79,0,0,1-1.39-.35,2.45,2.45,0,0,1-1-1,3.35,3.35,0,0,1,0-3,2.37,2.37,0,0,1,.94-1,2.83,2.83,0,0,1,1.41-.34,2.74,2.74,0,0,1,1.36.33,2.35,2.35,0,0,1,.92.93,2.78,2.78,0,0,1,.32,1.33A5.36,5.36,0,0,1,525.4,318.58ZM524.27,317a1.48,1.48,0,0,0-.62-.57,1.9,1.9,0,0,0-.86-.19,1.68,1.68,0,0,0-1.17.43,1.83,1.83,0,0,0-.55,1.21h3.43A1.65,1.65,0,0,0,524.27,317Z" fill="#a6a6a6"/><path d="M528.2,315.68a2.13,2.13,0,0,1,1.08-.25v.93H529c-1,0-1.52.55-1.52,1.64v3h-.9v-5.44h.9v.89A1.84,1.84,0,0,1,528.2,315.68Z" fill="#a6a6a6"/><path d="M534.57,316a2.27,2.27,0,0,1,.61,1.72V321h-.89v-3.08a1.75,1.75,0,0,0-.4-1.24,1.45,1.45,0,0,0-1.11-.43,1.51,1.51,0,0,0-1.14.44,1.83,1.83,0,0,0-.42,1.3v3h-.9v-5.44h.9v.78a1.84,1.84,0,0,1,.73-.65,2.26,2.26,0,0,1,1-.22A2.21,2.21,0,0,1,534.57,316Z" fill="#a6a6a6"/><path d="M536.66,316.76a2.38,2.38,0,0,1,.93-1,2.54,2.54,0,0,1,1.31-.34,2.45,2.45,0,0,1,1.24.3,2.08,2.08,0,0,1,.78.78v-1h.91V321h-.91v-1a2.14,2.14,0,0,1-.8.78,2.35,2.35,0,0,1-1.23.32,2.46,2.46,0,0,1-2.23-1.36,3.19,3.19,0,0,1-.34-1.47A3.11,3.11,0,0,1,536.66,316.76Zm4,.4a1.72,1.72,0,0,0-.66-.7,1.87,1.87,0,0,0-.93-.24,1.78,1.78,0,0,0-1.59.93,2.25,2.25,0,0,0-.24,1.07,2.34,2.34,0,0,0,.24,1.09,1.81,1.81,0,0,0,.67.7,1.78,1.78,0,0,0,.92.24A1.87,1.87,0,0,0,540,320a1.72,1.72,0,0,0,.66-.7,2.21,2.21,0,0,0,.25-1.08A2.14,2.14,0,0,0,540.67,317.16Z" fill="#a6a6a6"/><path d="M551,315.69a1.86,1.86,0,0,1,.78.79,2.51,2.51,0,0,1,.29,1.27V321h-.89v-3.08a1.75,1.75,0,0,0-.4-1.24,1.41,1.41,0,0,0-1.09-.43,1.45,1.45,0,0,0-1.12.45,1.89,1.89,0,0,0-.41,1.3v3h-.9v-3.08a1.75,1.75,0,0,0-.4-1.24,1.39,1.39,0,0,0-1.08-.43,1.45,1.45,0,0,0-1.12.45,1.85,1.85,0,0,0-.42,1.3v3h-.9v-5.44h.9v.79a1.83,1.83,0,0,1,.72-.66,2.19,2.19,0,0,1,1-.22,2.41,2.41,0,0,1,1.21.3,1.91,1.91,0,0,1,.78.9,1.77,1.77,0,0,1,.75-.89,2.23,2.23,0,0,1,1.17-.31A2.33,2.33,0,0,1,551,315.69Z" fill="#a6a6a6"/><path d="M558.49,318.58h-4.34a1.8,1.8,0,0,0,.55,1.25,1.77,1.77,0,0,0,1.22.45,1.66,1.66,0,0,0,1-.27,1.43,1.43,0,0,0,.55-.73h1a2.26,2.26,0,0,1-.87,1.27,2.63,2.63,0,0,1-1.62.5,2.79,2.79,0,0,1-1.39-.35,2.45,2.45,0,0,1-.95-1,3.35,3.35,0,0,1,0-3,2.37,2.37,0,0,1,.94-1,2.83,2.83,0,0,1,1.41-.34,2.74,2.74,0,0,1,1.36.33,2.35,2.35,0,0,1,.92.93,2.78,2.78,0,0,1,.32,1.33A5.36,5.36,0,0,1,558.49,318.58ZM557.36,317a1.48,1.48,0,0,0-.62-.57,1.9,1.9,0,0,0-.86-.19,1.68,1.68,0,0,0-1.17.43,1.83,1.83,0,0,0-.55,1.21h3.43A1.65,1.65,0,0,0,557.36,317Z" fill="#a6a6a6"/><path d="M566.58,315a3.05,3.05,0,0,1,1.25,1.16,3.39,3.39,0,0,1,.43,1.73,4.37,4.37,0,0,1-.25,1.5,3,3,0,0,1-.75,1.17,1.65,1.65,0,0,1-1.15.45,1.1,1.1,0,0,1-.76-.25,1,1,0,0,1-.31-.68,2.21,2.21,0,0,1-1.77.93,1.52,1.52,0,0,1-1.18-.47,1.72,1.72,0,0,1-.44-1.24,3.15,3.15,0,0,1,.32-1.39,2.55,2.55,0,0,1,.86-1,2.14,2.14,0,0,1,1.26-.39,1.25,1.25,0,0,1,1.27.71l.11-.61h.78l-.49,2.86a2.26,2.26,0,0,0,0,.35c0,.39.17.59.52.59a.82.82,0,0,0,.69-.38,2.48,2.48,0,0,0,.44-.94,4.45,4.45,0,0,0,.15-1.13,2.6,2.6,0,0,0-.78-2,3.15,3.15,0,0,0-2.19-.71,4,4,0,0,0-3.61,2.13,4.5,4.5,0,0,0-.54,2.19,2.58,2.58,0,0,0,.79,2,3.19,3.19,0,0,0,2.2.7A3.84,3.84,0,0,0,565,322l.12.61a4.9,4.9,0,0,1-1.94.37,4.25,4.25,0,0,1-1.87-.4,3,3,0,0,1-1.25-1.15,3.41,3.41,0,0,1-.44-1.74,5.14,5.14,0,0,1,.65-2.55,4.67,4.67,0,0,1,1.79-1.82,4.93,4.93,0,0,1,2.57-.67A4.11,4.11,0,0,1,566.58,315Zm-2.22,5a1.79,1.79,0,0,0,.59-.71,2.18,2.18,0,0,0,.22-1,1.24,1.24,0,0,0-.28-.84,1,1,0,0,0-.8-.32,1.33,1.33,0,0,0-.84.28,2,2,0,0,0-.56.75,2.37,2.37,0,0,0-.19.95,1.25,1.25,0,0,0,.26.83,1,1,0,0,0,.78.31A1.45,1.45,0,0,0,564.36,320.06Z" fill="#a6a6a6"/><path d="M577.41,315.69a1.86,1.86,0,0,1,.78.79,2.51,2.51,0,0,1,.29,1.27V321h-.89v-3.08a1.75,1.75,0,0,0-.4-1.24,1.41,1.41,0,0,0-1.09-.43,1.45,1.45,0,0,0-1.12.45,1.89,1.89,0,0,0-.41,1.3v3h-.9v-3.08a1.75,1.75,0,0,0-.4-1.24,1.39,1.39,0,0,0-1.08-.43,1.45,1.45,0,0,0-1.12.45,1.85,1.85,0,0,0-.42,1.3v3h-.9v-5.44h.9v.79a1.83,1.83,0,0,1,.72-.66,2.19,2.19,0,0,1,1-.22,2.41,2.41,0,0,1,1.21.3,1.91,1.91,0,0,1,.78.9,1.77,1.77,0,0,1,.75-.89,2.23,2.23,0,0,1,1.17-.31A2.33,2.33,0,0,1,577.41,315.69Z" fill="#a6a6a6"/><path d="M580,316.76a2.42,2.42,0,0,1,.92-1,2.6,2.6,0,0,1,1.32-.34,2.5,2.5,0,0,1,1.24.3,2.08,2.08,0,0,1,.78.78v-1h.91V321h-.91v-1a2.22,2.22,0,0,1-.8.78,2.35,2.35,0,0,1-1.23.32,2.43,2.43,0,0,1-1.31-.36,2.47,2.47,0,0,1-.92-1,3.07,3.07,0,0,1-.34-1.47A3,3,0,0,1,580,316.76Zm4,.4a1.74,1.74,0,0,0-.67-.7,1.8,1.8,0,0,0-2.51.69,2.14,2.14,0,0,0-.25,1.07,2.22,2.22,0,0,0,.25,1.09,1.86,1.86,0,0,0,.66.7,1.9,1.9,0,0,0,1.85,0,1.74,1.74,0,0,0,.67-.7,2.21,2.21,0,0,0,.25-1.08A2.14,2.14,0,0,0,584,317.16Z" fill="#a6a6a6"/><path d="M586.69,314.46a.57.57,0,0,1-.18-.43.6.6,0,0,1,.18-.44.58.58,0,0,1,.43-.18.54.54,0,0,1,.42.18.6.6,0,0,1,.18.44.57.57,0,0,1-.18.43.54.54,0,0,1-.42.18A.58.58,0,0,1,586.69,314.46Zm.87,1.06V321h-.9v-5.44Z" fill="#a6a6a6"/><path d="M590,313.62V321h-.91v-7.34Z" fill="#a6a6a6"/><path d="M591.38,320.84a.63.63,0,0,1,0-.88.64.64,0,0,1,.44-.17.62.62,0,0,1,.42,1,.56.56,0,0,1-.42.18A.6.6,0,0,1,591.38,320.84Z" fill="#a6a6a6"/><path d="M593.61,316.76a2.47,2.47,0,0,1,.94-1,3,3,0,0,1,3,.14,2.32,2.32,0,0,1,.86,1.35h-1a1.36,1.36,0,0,0-.54-.78,1.69,1.69,0,0,0-1-.29,1.62,1.62,0,0,0-1.25.53,2.19,2.19,0,0,0-.47,1.5,2.27,2.27,0,0,0,.47,1.52,1.8,1.8,0,0,0,2.24.25,1.38,1.38,0,0,0,.55-.79h1a2.4,2.4,0,0,1-.87,1.33,2.59,2.59,0,0,1-1.64.51,2.71,2.71,0,0,1-1.37-.35,2.47,2.47,0,0,1-.94-1,3.21,3.21,0,0,1-.33-1.49A3.12,3.12,0,0,1,593.61,316.76Z" fill="#a6a6a6"/><path d="M600.61,320.7a2.5,2.5,0,0,1-1-1,3.05,3.05,0,0,1-.35-1.48,2.94,2.94,0,0,1,.36-1.47,2.46,2.46,0,0,1,1-1,2.84,2.84,0,0,1,1.4-.34,2.81,2.81,0,0,1,1.39.34,2.5,2.5,0,0,1,1,1,3,3,0,0,1,.36,1.48,2.85,2.85,0,0,1-.37,1.48,2.53,2.53,0,0,1-1,1,2.88,2.88,0,0,1-1.4.35A2.84,2.84,0,0,1,600.61,320.7Zm2.3-.68a1.8,1.8,0,0,0,.69-.68,2.5,2.5,0,0,0,0-2.22,1.69,1.69,0,0,0-.67-.68,2,2,0,0,0-1.81,0,1.73,1.73,0,0,0-.66.68,2.33,2.33,0,0,0-.25,1.11,2.26,2.26,0,0,0,.25,1.12,1.64,1.64,0,0,0,.65.68,1.78,1.78,0,0,0,.89.22A1.81,1.81,0,0,0,602.91,320Z" fill="#a6a6a6"/><path d="M613.63,315.69a1.86,1.86,0,0,1,.78.79,2.51,2.51,0,0,1,.29,1.27V321h-.89v-3.08a1.75,1.75,0,0,0-.4-1.24,1.41,1.41,0,0,0-1.09-.43,1.47,1.47,0,0,0-1.12.45,1.89,1.89,0,0,0-.41,1.3v3h-.89v-3.08a1.75,1.75,0,0,0-.41-1.24,1.39,1.39,0,0,0-1.08-.43,1.45,1.45,0,0,0-1.12.45,1.85,1.85,0,0,0-.42,1.3v3H606v-5.44h.9v.79a1.83,1.83,0,0,1,.72-.66,2.19,2.19,0,0,1,1-.22,2.41,2.41,0,0,1,1.21.3,1.91,1.91,0,0,1,.78.9,1.77,1.77,0,0,1,.75-.89,2.23,2.23,0,0,1,1.17-.31A2.33,2.33,0,0,1,613.63,315.69Z" fill="#a6a6a6"/><path d="M512.43,363.81l.36.64-1.38.58,1.39.56-.38.67-1.2-.87.16,1.49h-.74l.15-1.49-1.2.88-.39-.68,1.38-.57-1.38-.56.37-.66,1.23.88-.16-1.5h.75l-.17,1.5Z" fill="#a6a6a6"/><path d="M517.25,363.81l.35.64-1.37.58,1.38.56-.37.67-1.2-.87.16,1.49h-.75l.15-1.49-1.2.88-.38-.68,1.37-.57-1.37-.56.36-.66,1.23.88-.16-1.5h.76l-.17,1.5Z" fill="#a6a6a6"/><path d="M522.06,363.81l.36.64L521,365l1.39.56-.38.67-1.2-.87.16,1.49h-.74l.15-1.49-1.2.88-.39-.68,1.38-.57-1.38-.56.37-.66,1.23.88-.16-1.5H521l-.17,1.5Z" fill="#a6a6a6"/><path d="M526.88,363.81l.36.64-1.38.58,1.39.56-.38.67-1.2-.87.16,1.49h-.74l.15-1.49-1.2.88-.39-.68L525,365l-1.38-.56.37-.66,1.23.88-.16-1.5h.75l-.17,1.5Z" fill="#a6a6a6"/><path d="M531.7,363.81l.35.64-1.37.58,1.38.56-.37.67-1.2-.87.16,1.49h-.75l.15-1.49-1.2.88-.38-.68,1.37-.57-1.37-.56.36-.66,1.23.88-.16-1.5h.76l-.17,1.5Z" fill="#a6a6a6"/><path d="M536.51,363.81l.36.64-1.38.58,1.39.56-.38.67-1.2-.87.16,1.49h-.74l.15-1.49-1.2.88-.39-.68,1.38-.57-1.38-.56.37-.66,1.23.88-.16-1.5h.75l-.17,1.5Z" fill="#a6a6a6"/><path d="M541.33,363.81l.36.64-1.38.58,1.39.56-.38.67-1.2-.87.16,1.49h-.74l.14-1.49-1.2.88-.38-.68,1.38-.57-1.38-.56.37-.66,1.22.88-.15-1.5h.75l-.17,1.5Z" fill="#a6a6a6"/><path d="M546.15,363.81l.35.64-1.38.58,1.39.56-.37.67-1.2-.87.15,1.49h-.74l.15-1.49-1.2.88-.38-.68,1.37-.57-1.37-.56.36-.66,1.23.88-.16-1.5h.76l-.17,1.5Z" fill="#a6a6a6"/><path d="M508.36,343.09a2.91,2.91,0,0,1-2.09.66h-1.55v3.37h-1.06v-8.06h2.61a2.94,2.94,0,0,1,2.07.66,2.38,2.38,0,0,1,0,3.37Zm-.8-.59a1.37,1.37,0,0,0,.42-1.08c0-1-.57-1.49-1.71-1.49h-1.55v3h1.55A1.84,1.84,0,0,0,507.56,342.5Z" fill="#183518"/><path d="M510.36,342.22a2.83,2.83,0,0,1,1.08-1.14,3,3,0,0,1,1.53-.4,2.81,2.81,0,0,1,1.45.36,2.38,2.38,0,0,1,.91.9v-1.16h1.06v6.34h-1.06v-1.18a2.56,2.56,0,0,1-.93.92,2.8,2.8,0,0,1-1.44.36,2.87,2.87,0,0,1-2.6-1.58,3.66,3.66,0,0,1-.4-1.71A3.6,3.6,0,0,1,510.36,342.22Zm4.68.47a2,2,0,0,0-.78-.82,2.23,2.23,0,0,0-1.08-.28,2.12,2.12,0,0,0-1.08.28,2,2,0,0,0-.77.81,2.59,2.59,0,0,0-.29,1.25,2.66,2.66,0,0,0,.29,1.26,2,2,0,0,0,.77.82,2.16,2.16,0,0,0,2.16,0,2,2,0,0,0,.78-.82,2.62,2.62,0,0,0,.29-1.25A2.59,2.59,0,0,0,515,342.69Z" fill="#183518"/><path d="M519.11,347a2.07,2.07,0,0,1-.91-.69,1.79,1.79,0,0,1-.37-1h1.08a1.06,1.06,0,0,0,.45.77,1.68,1.68,0,0,0,1,.3,1.54,1.54,0,0,0,.94-.26.84.84,0,0,0,.35-.68.65.65,0,0,0-.37-.61,5,5,0,0,0-1.14-.4A9.3,9.3,0,0,1,519,344a2,2,0,0,1-.76-.57,1.48,1.48,0,0,1-.32-1,1.5,1.5,0,0,1,.29-.89,2.07,2.07,0,0,1,.82-.65,3.12,3.12,0,0,1,1.22-.23,2.56,2.56,0,0,1,1.7.53,1.91,1.91,0,0,1,.69,1.46h-1a1.08,1.08,0,0,0-.4-.8,1.49,1.49,0,0,0-1-.3,1.52,1.52,0,0,0-.9.24.75.75,0,0,0-.33.64.67.67,0,0,0,.2.51,1.31,1.31,0,0,0,.51.32,6,6,0,0,0,.85.28,9.12,9.12,0,0,1,1.11.36,1.93,1.93,0,0,1,.73.54,1.41,1.41,0,0,1,.32.93,1.63,1.63,0,0,1-.29.94,1.8,1.8,0,0,1-.82.65,2.86,2.86,0,0,1-1.2.24A3.22,3.22,0,0,1,519.11,347Z" fill="#183518"/><path d="M525.15,347a2.16,2.16,0,0,1-.92-.69,1.86,1.86,0,0,1-.37-1H525a1.08,1.08,0,0,0,.44.77,1.72,1.72,0,0,0,1.05.3,1.58,1.58,0,0,0,.95-.26.83.83,0,0,0,.34-.68.65.65,0,0,0-.36-.61,4.93,4.93,0,0,0-1.15-.4,9.09,9.09,0,0,1-1.15-.38,1.93,1.93,0,0,1-.76-.57,1.43,1.43,0,0,1-.32-1,1.5,1.5,0,0,1,.29-.89,1.93,1.93,0,0,1,.82-.65,3.07,3.07,0,0,1,1.21-.23,2.56,2.56,0,0,1,1.7.53,1.92,1.92,0,0,1,.7,1.46h-1.06a1.07,1.07,0,0,0-.39-.8,1.78,1.78,0,0,0-1.88-.06.73.73,0,0,0-.34.64.71.71,0,0,0,.2.51,1.48,1.48,0,0,0,.51.32,7,7,0,0,0,.85.28,8.09,8.09,0,0,1,1.11.36,2,2,0,0,1,.74.54,1.41,1.41,0,0,1,.31.93,1.56,1.56,0,0,1-.29.94,1.82,1.82,0,0,1-.81.65,2.87,2.87,0,0,1-1.21.24A3.17,3.17,0,0,1,525.15,347Z" fill="#183518"/><path d="M538.68,340.78l-2,6.34h-1.09l-1.53-5-1.52,5h-1.09l-2-6.34h1.08L532,346.1l1.58-5.32h1.07l1.54,5.33,1.43-5.33Z" fill="#183518"/><path d="M540.87,346.82a3,3,0,0,1-1.13-1.15,3.6,3.6,0,0,1-.41-1.73,3.45,3.45,0,0,1,.42-1.72,2.87,2.87,0,0,1,1.15-1.14,3.31,3.31,0,0,1,1.63-.4,3.26,3.26,0,0,1,1.63.4,2.84,2.84,0,0,1,1.15,1.13,3.66,3.66,0,0,1,0,3.46,3.08,3.08,0,0,1-1.17,1.15,3.35,3.35,0,0,1-1.64.4A3.27,3.27,0,0,1,540.87,346.82Zm2.68-.79a2,2,0,0,0,.8-.8,2.47,2.47,0,0,0,.31-1.29,2.63,2.63,0,0,0-.3-1.3,1.94,1.94,0,0,0-.79-.79,2.21,2.21,0,0,0-1.05-.26,2.25,2.25,0,0,0-1.06.26,1.87,1.87,0,0,0-.76.79,2.63,2.63,0,0,0-.29,1.3,2.72,2.72,0,0,0,.28,1.3,1.9,1.9,0,0,0,.76.8,2.14,2.14,0,0,0,1,.26A2.17,2.17,0,0,0,543.55,346Z" fill="#183518"/><path d="M549,341a2.44,2.44,0,0,1,1.25-.3v1.08h-.28c-1.17,0-1.76.64-1.76,1.92v3.45h-1.06v-6.34h1.06v1A1.94,1.94,0,0,1,549,341Z" fill="#183518"/><path d="M551.44,342.22a2.83,2.83,0,0,1,1.08-1.14,3,3,0,0,1,1.54-.4,2.88,2.88,0,0,1,1.38.34,2.54,2.54,0,0,1,1,.89v-3.35h1.06v8.56h-1.06v-1.19a2.59,2.59,0,0,1-.93.93,2.76,2.76,0,0,1-1.43.36,2.89,2.89,0,0,1-1.53-.42,2.82,2.82,0,0,1-1.08-1.16,3.54,3.54,0,0,1-.4-1.71A3.48,3.48,0,0,1,551.44,342.22Zm4.68.47a2,2,0,0,0-.78-.82,2.23,2.23,0,0,0-1.08-.28,2.1,2.1,0,0,0-1.08.28,2,2,0,0,0-.77.81,2.48,2.48,0,0,0-.29,1.25,2.55,2.55,0,0,0,.29,1.26,2,2,0,0,0,.77.82,2.1,2.1,0,0,0,1.08.29,2.13,2.13,0,0,0,1.08-.29,2,2,0,0,0,.78-.82,2.62,2.62,0,0,0,.29-1.25A2.59,2.59,0,0,0,556.12,342.69Z" fill="#183518"/><path d="M604.54,481.69a3.89,3.89,0,0,1-1.47-1.46,4.53,4.53,0,0,1,0-4.25,3.84,3.84,0,0,1,1.47-1.47,4,4,0,0,1,2-.52,4.1,4.1,0,0,1,2.06.52A3.82,3.82,0,0,1,610.1,476a4.53,4.53,0,0,1,0,4.25,3.79,3.79,0,0,1-1.46,1.46,4.1,4.1,0,0,1-2.06.53A4,4,0,0,1,604.54,481.69Zm3.56-.78a2.75,2.75,0,0,0,1.07-1.12,3.95,3.95,0,0,0,0-3.38,2.93,2.93,0,0,0-1.06-1.12,3,3,0,0,0-1.53-.39,2.94,2.94,0,0,0-1.52.39,2.86,2.86,0,0,0-1.06,1.12,3.86,3.86,0,0,0,0,3.38,2.73,2.73,0,0,0,1.06,1.12,3.09,3.09,0,0,0,3,0Z" fill="#183518"/><path d="M613.86,476a2.44,2.44,0,0,1,1.25-.3v1.08h-.27q-1.77,0-1.77,1.92v3.45H612V475.8h1.05v1A2,2,0,0,1,613.86,476Z" fill="#183518"/><path d="M592.42,440.86h3.49v1.37h-5.19V431.9h1.7Z" fill="#fff"/><path d="M598.78,441.84a3.9,3.9,0,0,1-1.47-1.49,4.45,4.45,0,0,1-.54-2.22,4.51,4.51,0,0,1,.55-2.22,3.77,3.77,0,0,1,1.51-1.48,4.3,4.3,0,0,1,2.12-.52,4.36,4.36,0,0,1,2.13.52,3.81,3.81,0,0,1,1.5,1.48,4.4,4.4,0,0,1,.55,2.22,4.25,4.25,0,0,1-.57,2.21,3.94,3.94,0,0,1-1.53,1.5,4.47,4.47,0,0,1-2.15.52A4.25,4.25,0,0,1,598.78,441.84Zm3.32-1.26a2.28,2.28,0,0,0,.93-.94,3,3,0,0,0,.36-1.51,3,3,0,0,0-.34-1.51,2.33,2.33,0,0,0-.91-.93,2.46,2.46,0,0,0-1.22-.31,2.42,2.42,0,0,0-1.21.31,2.2,2.2,0,0,0-.88.93,3.15,3.15,0,0,0-.33,1.51,2.83,2.83,0,0,0,.68,2,2.22,2.22,0,0,0,1.7.72A2.49,2.49,0,0,0,602.1,440.58Z" fill="#fff"/><path d="M611.79,434.28a3.35,3.35,0,0,1,1.16,1V434h1.71v8.32a4.16,4.16,0,0,1-.48,2,3.46,3.46,0,0,1-1.37,1.39,4.41,4.41,0,0,1-2.15.5,4.69,4.69,0,0,1-2.77-.78,2.88,2.88,0,0,1-1.25-2.11h1.68a1.85,1.85,0,0,0,.83,1,2.8,2.8,0,0,0,1.51.39,2.3,2.3,0,0,0,1.66-.62,2.45,2.45,0,0,0,.63-1.82V441a3.53,3.53,0,0,1-2.84,1.36,3.68,3.68,0,0,1-2-.54,3.83,3.83,0,0,1-1.39-1.51,4.59,4.59,0,0,1-.52-2.21,4.46,4.46,0,0,1,.52-2.19,3.81,3.81,0,0,1,1.39-1.48,3.76,3.76,0,0,1,2-.52A3.64,3.64,0,0,1,611.79,434.28Zm.81,2.38a2.5,2.5,0,0,0-.92-1,2.44,2.44,0,0,0-1.22-.32,2.43,2.43,0,0,0-2.13,1.25,3,3,0,0,0-.35,1.47,3.05,3.05,0,0,0,.35,1.48,2.49,2.49,0,0,0,.92,1,2.4,2.4,0,0,0,1.21.33,2.44,2.44,0,0,0,1.22-.32,2.5,2.5,0,0,0,.92-1,3.05,3.05,0,0,0,.35-1.48A3,3,0,0,0,612.6,436.66Z" fill="#fff"/><path d="M620.84,432.64a1,1,0,0,1-.31-.77,1,1,0,0,1,.31-.77,1.06,1.06,0,0,1,.77-.32,1,1,0,0,1,.76.32,1,1,0,0,1,.31.77,1.06,1.06,0,0,1-1.07,1.08A1,1,0,0,1,620.84,432.64Zm1.61,1.4v8.19h-1.7V434Z" fill="#fff"/><path d="M630.54,434.31a2.81,2.81,0,0,1,1.2,1.19,4,4,0,0,1,.43,1.9v4.83h-1.68v-4.58a2.39,2.39,0,0,0-.55-1.68,2.21,2.21,0,0,0-3,0,2.35,2.35,0,0,0-.56,1.68v4.58h-1.69V434h1.69V435a2.81,2.81,0,0,1,1.06-.79,3.37,3.37,0,0,1,1.38-.28A3.65,3.65,0,0,1,630.54,434.31Z" fill="#fff"/></svg>